<?xml version="1.0" encoding="iso-8859-1"?>
<!-- Generator: Adobe Illustrator 19.0.0, SVG Export Plug-In . SVG Version: 6.00 Build 0)  -->
<svg version="1.1" id="Layer_1" xmlns="http://www.w3.org/2000/svg" xmlns:xlink="http://www.w3.org/1999/xlink" x="0px" y="0px"
	 viewBox="0 0 512 512" style="enable-background:new 0 0 512 512;" xml:space="preserve">
<g transform="translate(1 1)">
	<path style="fill:#FDCC00;" d="M366.258,502.467H143.734c-13.952,0-25.267-11.315-25.267-25.276V32.809
		c0-13.96,11.315-25.276,25.267-25.276h222.524c13.961,0,25.276,11.315,25.276,25.276v444.382
		C391.533,491.152,380.218,502.467,366.258,502.467"/>
	<polygon style="fill:#FFE100;" points="118.467,434.2 391.533,434.2 391.533,58.733 118.467,58.733 	"/>
	<g>
		<path style="fill:#00DA6C;" d="M272.067,306.2V203.8c0-51.908-17.067-59.733-17.067-59.733s-17.067,7.825-17.067,59.733v102.4
			l-25.6,17.067V357.4L255,340.333l42.667,17.067v-34.133L272.067,306.2z"/>
		<polygon style="fill:#00DA6C;" points="237.933,255 152.6,255 152.6,229.4 237.933,203.8 		"/>
		<polygon style="fill:#00DA6C;" points="272.067,255 357.4,255 357.4,229.4 272.067,203.8 		"/>
	</g>
	<g>
		<path style="fill:#FFE100;" d="M468.333,178.2c-4.719,0-8.533-3.823-8.533-8.533v-34.133c0-4.71,3.814-8.533,8.533-8.533
			c4.719,0,8.533,3.823,8.533,8.533v34.133C476.867,174.377,473.052,178.2,468.333,178.2z"/>
		<path style="fill:#FFE100;" d="M485.4,161.133h-34.133c-4.719,0-8.533-3.823-8.533-8.533s3.814-8.533,8.533-8.533H485.4
			c4.719,0,8.533,3.823,8.533,8.533S490.119,161.133,485.4,161.133z"/>
		<path style="fill:#FFE100;" d="M41.667,7.533c0,18.867-15.266,34.133-34.133,34.133c18.867,0,34.133,15.266,34.133,34.133
			c0-18.867,15.266-34.133,34.133-34.133C56.933,41.667,41.667,26.401,41.667,7.533"/>
		<path style="fill:#FFE100;" d="M75.8,383c0,4.71-3.823,8.533-8.533,8.533s-8.533-3.823-8.533-8.533s3.823-8.533,8.533-8.533
			S75.8,378.29,75.8,383"/>
		<path style="fill:#FFE100;" d="M33.133,229.4c0,4.71-3.823,8.533-8.533,8.533s-8.533-3.823-8.533-8.533s3.823-8.533,8.533-8.533
			S33.133,224.69,33.133,229.4"/>
		<path style="fill:#FFE100;" d="M451.267,314.733c0,4.71-3.823,8.533-8.533,8.533s-8.533-3.823-8.533-8.533
			s3.823-8.533,8.533-8.533S451.267,310.023,451.267,314.733"/>
		<path style="fill:#FFE100;" d="M511,493.933c0,4.71-3.823,8.533-8.533,8.533s-8.533-3.823-8.533-8.533s3.823-8.533,8.533-8.533
			S511,489.223,511,493.933"/>
		<path style="fill:#FFE100;" d="M280.6,468.333c0,14.14-11.46,25.6-25.6,25.6c-14.14,0-25.6-11.46-25.6-25.6
			c0-14.14,11.46-25.6,25.6-25.6C269.14,442.733,280.6,454.194,280.6,468.333"/>
	</g>
	<path style="fill:#FFA800;" d="M366.258,7.533h-25.6c13.961,0,25.276,11.315,25.276,25.276v444.382
		c0,13.96-11.315,25.276-25.276,25.276h25.6c13.961,0,25.276-11.315,25.276-25.276V32.809
		C391.533,18.848,380.218,7.533,366.258,7.533"/>
	<path style="fill:#FFFFFF;" d="M143.742,7.533h25.6c-13.96,0-25.276,11.315-25.276,25.276v444.382
		c0,13.96,11.315,25.276,25.276,25.276h-25.6c-13.96,0-25.276-11.315-25.276-25.276V32.809
		C118.467,18.848,129.782,7.533,143.742,7.533"/>
	<path d="M366.258,511H143.734c-18.637,0-33.801-15.164-33.801-33.809V32.809C109.933,14.164,125.097-1,143.734-1h222.524
		c18.645,0,33.809,15.164,33.809,33.809v444.382C400.067,495.836,384.903,511,366.258,511z M143.734,16.067
		c-9.224,0-16.734,7.509-16.734,16.742v444.382c0,9.233,7.509,16.742,16.734,16.742h222.524c9.233,0,16.742-7.509,16.742-16.742
		V32.809c0-9.233-7.509-16.742-16.742-16.742H143.734z"/>
	<path d="M400.067,442.733H109.933V50.2h290.133V442.733z M127,425.667h256v-358.4H127V425.667z"/>
	<path d="M289.133,41.667h-42.667c-4.71,0-8.533-3.823-8.533-8.533s3.823-8.533,8.533-8.533h42.667c4.719,0,8.533,3.823,8.533,8.533
		S293.852,41.667,289.133,41.667z"/>
	<path d="M220.867,41.667h-8.533c-4.71,0-8.533-3.823-8.533-8.533s3.823-8.533,8.533-8.533h8.533c4.71,0,8.533,3.823,8.533,8.533
		S225.577,41.667,220.867,41.667z"/>
	<path d="M109.933,101.4c-4.71,0-8.533-3.823-8.533-8.533v-8.533c0-4.71,3.823-8.533,8.533-8.533c4.71,0,8.533,3.823,8.533,8.533
		v8.533C118.467,97.577,114.644,101.4,109.933,101.4z"/>
	<path d="M109.933,135.533c-4.71,0-8.533-3.823-8.533-8.533v-8.533c0-4.71,3.823-8.533,8.533-8.533c4.71,0,8.533,3.823,8.533,8.533
		V127C118.467,131.71,114.644,135.533,109.933,135.533z"/>
	<path d="M109.933,169.667c-4.71,0-8.533-3.823-8.533-8.533V152.6c0-4.71,3.823-8.533,8.533-8.533c4.71,0,8.533,3.823,8.533,8.533
		v8.533C118.467,165.844,114.644,169.667,109.933,169.667z"/>
	<path d="M255,502.467c-18.824,0-34.133-15.309-34.133-34.133c0-18.824,15.309-34.133,34.133-34.133s34.133,15.309,34.133,34.133
		C289.133,487.158,273.824,502.467,255,502.467z M255,451.267c-9.412,0-17.067,7.654-17.067,17.067
		c0,9.412,7.654,17.067,17.067,17.067s17.067-7.654,17.067-17.067C272.067,458.921,264.412,451.267,255,451.267z"/>
	<path d="M297.667,365.933c-1.075,0-2.15-0.196-3.166-0.606L255,349.524l-39.492,15.804c-2.637,1.058-5.606,0.717-7.953-0.862
		c-2.347-1.596-3.746-4.233-3.746-7.066v-34.133c0-2.85,1.425-5.512,3.797-7.1l21.803-14.532V203.8
		c0-54.613,18.364-65.801,22.042-67.49c2.261-1.033,4.855-1.033,7.117,0c3.67,1.69,22.033,12.877,22.033,67.49v97.835l21.803,14.532
		c2.372,1.587,3.797,4.249,3.797,7.1V357.4c0,2.833-1.408,5.478-3.746,7.066C301.02,365.43,299.348,365.933,297.667,365.933z
		 M255,331.8c1.075,0,2.15,0.196,3.174,0.606l30.959,12.39v-16.964L267.331,313.3c-2.372-1.587-3.797-4.249-3.797-7.1V203.8
		c0-27.358-4.89-40.909-8.576-47.232c-3.567,6.229-8.491,19.78-8.491,47.232v102.4c0,2.85-1.425,5.513-3.797,7.1l-21.803,14.532
		v16.964l30.959-12.39C252.85,331.996,253.925,331.8,255,331.8z"/>
	<path d="M237.933,263.533H152.6c-4.71,0-8.533-3.823-8.533-8.533v-25.6c0-3.763,2.475-7.091,6.084-8.175l85.333-25.6
		c2.586-0.768,5.376-0.282,7.543,1.331c2.159,1.604,3.439,4.147,3.439,6.844V255C246.467,259.71,242.644,263.533,237.933,263.533z
		 M161.133,246.467H229.4v-31.198l-68.267,20.48V246.467z"/>
	<path d="M357.4,263.533h-85.333c-4.719,0-8.533-3.823-8.533-8.533v-51.2c0-2.697,1.271-5.24,3.439-6.844
		c2.167-1.604,4.975-2.108,7.543-1.331l85.333,25.6c3.61,1.084,6.084,4.412,6.084,8.175V255
		C365.933,259.71,362.119,263.533,357.4,263.533z M280.6,246.467h68.267v-10.718l-68.267-20.48V246.467z"/>
	<path d="M41.667,84.333c-4.71,0-8.533-3.823-8.533-8.533c0-14.114-11.486-25.6-25.6-25.6C2.823,50.2-1,46.377-1,41.667
		s3.823-8.533,8.533-8.533c14.114,0,25.6-11.486,25.6-25.6c0-4.71,3.823-8.533,8.533-8.533S50.2,2.823,50.2,7.533
		c0,14.114,11.486,25.6,25.6,25.6c4.71,0,8.533,3.823,8.533,8.533S80.51,50.2,75.8,50.2c-14.114,0-25.6,11.486-25.6,25.6
		C50.2,80.51,46.377,84.333,41.667,84.333z M33.108,41.667c3.234,2.432,6.127,5.325,8.559,8.559
		c2.432-3.234,5.325-6.127,8.559-8.559c-3.234-2.432-6.127-5.325-8.559-8.559C39.235,36.342,36.342,39.235,33.108,41.667z"/>
	<path d="M459.8,169.667c-4.719,0-8.533-3.823-8.533-8.533V127c0-4.71,3.814-8.533,8.533-8.533s8.533,3.823,8.533,8.533v34.133
		C468.333,165.844,464.519,169.667,459.8,169.667z"/>
	<path d="M476.867,152.6h-34.133c-4.719,0-8.533-3.823-8.533-8.533c0-4.71,3.814-8.533,8.533-8.533h34.133
		c4.719,0,8.533,3.823,8.533,8.533C485.4,148.777,481.586,152.6,476.867,152.6z"/>
	<path d="M67.267,374.467c0,4.71-3.823,8.533-8.533,8.533s-8.533-3.823-8.533-8.533s3.823-8.533,8.533-8.533
		S67.267,369.756,67.267,374.467"/>
	<path d="M24.6,220.867c0,4.71-3.823,8.533-8.533,8.533s-8.533-3.823-8.533-8.533s3.823-8.533,8.533-8.533
		S24.6,216.156,24.6,220.867"/>
	<path d="M442.733,306.2c0,4.71-3.823,8.533-8.533,8.533s-8.533-3.823-8.533-8.533s3.823-8.533,8.533-8.533
		S442.733,301.49,442.733,306.2"/>
	<path d="M502.467,485.4c0,4.71-3.823,8.533-8.533,8.533s-8.533-3.823-8.533-8.533s3.823-8.533,8.533-8.533
		S502.467,480.69,502.467,485.4"/>
</g>
<g>
</g>
<g>
</g>
<g>
</g>
<g>
</g>
<g>
</g>
<g>
</g>
<g>
</g>
<g>
</g>
<g>
</g>
<g>
</g>
<g>
</g>
<g>
</g>
<g>
</g>
<g>
</g>
<g>
</g>
</svg>
