<?xml version="1.0" encoding="iso-8859-1"?>
<!-- Generator: Adobe Illustrator 19.0.0, SVG Export Plug-In . SVG Version: 6.00 Build 0)  -->
<svg version="1.1" id="Capa_1" xmlns="http://www.w3.org/2000/svg" xmlns:xlink="http://www.w3.org/1999/xlink" x="0px" y="0px"
	 viewBox="0 0 496.485 496.485" style="enable-background:new 0 0 496.485 496.485;" xml:space="preserve">
<rect x="7.758" y="39.564" style="fill:#FDBF5E;" width="480.97" height="341.333"/>
<path style="fill:#193651;" d="M488.727,388.655H7.758c-4.655,0-7.758-3.103-7.758-7.758V39.564c0-4.655,3.103-7.758,7.758-7.758
	h480.97c4.655,0,7.758,3.103,7.758,7.758v341.333C496.485,385.552,493.382,388.655,488.727,388.655z M15.515,373.139H480.97V47.321
	H15.515V373.139z"/>
<path style="fill:#FFFFFF;" d="M283.152,7.758c-19.394,0-34.909,23.273-34.909,42.667v330.473c0-19.394,15.515-42.667,34.909-42.667
	h168.339V7.758H283.152z"/>
<path style="fill:#193651;" d="M248.242,388.655c-4.655,0-7.758-3.103-7.758-7.758V50.424C240.485,27.152,259.103,0,283.152,0
	h168.339c4.655,0,7.758,3.103,7.758,7.758V338.23c0,4.655-3.103,7.758-7.758,7.758H283.152c-14.739,0-27.152,19.394-27.152,34.909
	C256,385.552,252.897,388.655,248.242,388.655z M283.152,15.515C269.188,15.515,256,34.909,256,50.424v293.236
	c6.982-7.758,17.067-13.188,27.152-13.188h160.582V15.515H283.152z"/>
<path style="fill:#E1E6E9;" d="M279.273,42.667c0-2.327,1.552-3.879,3.879-3.879h137.309V307.2H283.152c-1.552,0-2.327,0-3.879,0
	V42.667z"/>
<path style="fill:#FFFFFF;" d="M213.333,7.758c19.394,0,34.909,23.273,34.909,42.667v330.473c0-19.394-15.515-42.667-34.909-42.667
	H44.994V7.758H213.333z"/>
<path style="fill:#193651;" d="M248.242,388.655c-4.655,0-7.758-3.103-7.758-7.758c0-15.515-13.188-34.909-27.152-34.909H44.994
	c-4.655,0-7.758-3.103-7.758-7.758V7.758C37.236,3.103,40.339,0,44.994,0h168.339C237.382,0,256,27.152,256,50.424v330.473
	C256,385.552,252.897,388.655,248.242,388.655z M52.752,330.473h160.582c10.085,0,20.17,5.43,27.152,13.188V50.424
	c0-15.515-13.188-34.909-27.152-34.909H52.752V330.473z"/>
<path style="fill:#E1E6E9;" d="M217.212,307.2c-1.552,0-2.327,0-3.879,0H76.024V38.788h137.309c2.327,0,3.879,1.552,3.879,3.879
	V307.2z"/>
<path style="fill:#2EA2DB;" d="M217.212,128.776V42.667c0-2.327-1.552-3.879-3.879-3.879H76.024v89.988H217.212z"/>
<polygon style="fill:#FFFFFF;" points="131.103,63.612 131.103,104.727 162.909,83.782 "/>
<g>
	<rect x="304.097" y="72.145" style="fill:#193651;" width="91.539" height="15.515"/>
	<rect x="304.097" y="117.139" style="fill:#193651;" width="91.539" height="15.515"/>
	<rect x="335.127" y="162.133" style="fill:#193651;" width="60.509" height="15.515"/>
	<rect x="366.158" y="207.903" style="fill:#193651;" width="29.479" height="15.515"/>
	<rect x="366.158" y="252.897" style="fill:#193651;" width="29.479" height="15.515"/>
	<rect x="100.848" y="162.133" style="fill:#193651;" width="52.752" height="15.515"/>
	<rect x="100.848" y="207.903" style="fill:#193651;" width="29.479" height="15.515"/>
</g>
<path style="fill:#FFFFFF;" d="M220.315,348.315V460.8c0,15.515,12.412,27.927,27.927,27.927l0,0
	c15.515,0,27.927-12.412,27.927-27.927V348.315H220.315z"/>
<path style="fill:#193651;" d="M276.17,340.558h-55.855c-4.655,0-7.758,3.103-7.758,7.758V460.8
	c0,19.394,16.291,35.685,35.685,35.685c19.394,0,35.685-16.291,35.685-35.685V348.315
	C283.927,343.661,280.048,340.558,276.17,340.558z M268.412,460.8c0,10.861-9.309,20.17-20.17,20.17
	c-10.861,0-20.17-9.309-20.17-20.17V356.073h40.339V460.8z"/>
<circle style="fill:#FFFFFF;" cx="248.242" cy="256.776" r="96.97"/>
<path style="fill:#193651;" d="M248.242,361.503c-57.406,0-104.727-47.321-104.727-104.727s47.321-104.727,104.727-104.727
	S352.97,199.37,352.97,256.776S305.648,361.503,248.242,361.503z M248.242,167.564c-48.873,0-89.212,40.339-89.212,89.212
	s40.339,89.212,89.212,89.212s89.212-40.339,89.212-89.212C337.455,207.127,297.115,167.564,248.242,167.564z"/>
<rect x="240.485" y="373.139" style="fill:#193651;" width="15.515" height="15.515"/>
<rect x="240.485" y="411.152" style="fill:#193651;" width="15.515" height="15.515"/>
<g>
	<rect x="240.485" y="448.388" style="fill:#193651;" width="15.515" height="15.515"/>
	<path style="fill:#193651;" d="M224.97,273.067l-9.309,21.721H199.37l40.339-93.091H256l41.115,93.091h-16.291l-9.309-21.721
		H224.97z M264.533,259.103l-16.291-38.012l-17.067,38.012H264.533z"/>
</g>
<g>
</g>
<g>
</g>
<g>
</g>
<g>
</g>
<g>
</g>
<g>
</g>
<g>
</g>
<g>
</g>
<g>
</g>
<g>
</g>
<g>
</g>
<g>
</g>
<g>
</g>
<g>
</g>
<g>
</g>
</svg>
