<?xml version="1.0" standalone="no"?>
<!DOCTYPE svg PUBLIC "-//W3C//DTD SVG 20010904//EN"
 "http://www.w3.org/TR/2001/REC-SVG-20010904/DTD/svg10.dtd">
<svg version="1.0" xmlns="http://www.w3.org/2000/svg"
 width="512.000000pt" height="512.000000pt" viewBox="0 0 512.000000 512.000000"
 preserveAspectRatio="xMidYMid meet">
<metadata>
Created by potrace 1.11, written by Peter Selinger 2001-2013
</metadata>
<g transform="translate(0.000000,512.000000) scale(0.100000,-0.100000)"
fill="#000000" stroke="none">
<path d="M3093 5110 c-124 -22 -244 -89 -331 -184 -55 -60 -116 -175 -127
-239 -4 -20 -11 -39 -15 -42 -4 -3 -32 9 -61 25 -240 131 -544 -23 -589 -297
-6 -32 -10 -115 -10 -184 l0 -127 -54 -26 c-155 -76 -178 -285 -46 -399 l42
-35 -25 -69 c-28 -77 -67 -247 -67 -291 0 -16 -11 -44 -25 -63 -84 -117 -114
-244 -84 -363 10 -41 9 -46 -24 -92 -76 -108 -113 -212 -124 -354 l-6 -80 -63
0 -64 0 0 113 c0 162 -17 206 -83 207 -76 1 -87 -33 -87 -256 l0 -174 -79 0
-79 0 -6 34 c-10 54 -56 83 -103 65 -34 -13 -52 -37 -53 -71 l0 -28 -85 0 -85
0 0 28 c-1 76 -99 104 -144 40 -9 -12 -16 -33 -16 -45 0 -22 -3 -23 -85 -23
l-85 0 0 140 c0 127 -2 142 -20 160 -21 21 -69 26 -100 10 -29 -16 -40 -66
-40 -191 l0 -117 -111 -4 c-107 -3 -112 -4 -135 -31 -23 -27 -24 -32 -24 -208
0 -247 1 -248 162 -249 l108 0 2 -821 3 -821 28 -24 28 -24 349 0 349 0 28 24
28 24 3 821 2 821 80 0 80 0 2 -820 3 -819 23 -23 23 -23 1880 -3 1880 -2 30
29 29 29 0 659 c0 733 -1 740 -66 863 -44 85 -135 173 -219 214 -55 26 -153
116 -155 140 0 5 12 24 26 43 33 44 78 143 95 213 8 31 14 103 13 165 0 93 -4
122 -28 190 -28 80 -71 161 -108 201 -17 19 -18 27 -9 60 16 58 13 174 -5 230
-9 27 -34 76 -56 108 -30 46 -41 74 -48 130 -13 87 -43 207 -70 277 l-21 52
21 14 c144 101 144 316 0 405 -68 42 -126 48 -442 48 l-290 0 4 158 c3 151 4
159 31 204 82 140 272 163 384 46 38 -39 58 -85 68 -152 12 -79 62 -115 118
-84 50 26 58 70 32 172 -65 251 -347 375 -579 256 -65 -33 -70 -32 -81 28 -22
119 -151 281 -275 346 -38 20 -90 43 -116 51 -62 19 -187 26 -251 15z m207
-172 c109 -33 204 -114 254 -218 l31 -65 3 -292 3 -293 -405 0 -406 0 0 268
c0 298 6 335 64 427 99 154 284 224 456 173z m-823 -410 c52 -24 109 -89 123
-137 5 -20 10 -100 10 -178 l0 -143 -246 0 -247 0 5 148 c6 163 17 204 71 260
75 79 183 97 284 50z m1924 -641 c45 -34 46 -92 2 -127 -25 -20 -44 -20 -1219
-20 l-1193 0 -26 23 c-35 29 -37 78 -5 112 l23 25 1201 0 c928 -1 1205 -3
1217 -13z m-1021 -377 c155 -179 399 -307 658 -345 l42 -7 0 -44 c0 -83 53
-138 112 -115 40 15 58 49 58 108 l0 53 48 -6 c100 -13 181 -78 207 -167 19
-63 19 -81 0 -143 -28 -93 -102 -154 -207 -169 l-48 -7 0 55 c0 71 -26 107
-76 107 -72 0 -89 -27 -98 -157 -18 -246 -153 -488 -356 -640 -106 -80 -275
-151 -397 -168 l-53 -7 0 132 0 132 -29 29 -29 29 -360 0 -359 0 -42 60 c-87
123 -144 284 -156 437 -10 123 -28 153 -92 153 -56 0 -95 -69 -79 -136 7 -27
7 -27 -43 -22 -110 11 -199 88 -221 191 -27 134 55 259 190 288 66 14 75 10
72 -33 -8 -85 50 -140 116 -112 37 15 52 47 52 109 0 43 1 44 38 50 281 45
485 150 652 333 l65 71 141 1 141 0 53 -60z m-1480 -2365 l0 -975 -240 0 -240
0 0 975 0 975 240 0 240 0 0 -975z m2176 856 c64 -41 73 -50 56 -55 -42 -14
-98 -64 -125 -114 -66 -121 -15 -278 108 -336 21 -10 40 -29 46 -44 6 -15 17
-35 26 -44 14 -15 13 -20 -4 -45 -11 -15 -23 -36 -26 -45 -3 -9 -23 -26 -44
-37 -85 -44 -135 -125 -134 -220 0 -95 51 -180 128 -215 26 -12 46 -31 64 -64
l26 -47 -26 -47 c-16 -29 -36 -51 -52 -57 -14 -5 -42 -23 -62 -40 -128 -113
-98 -323 58 -404 28 -15 -50 -16 -930 -16 -898 -1 -958 1 -927 16 45 22 88 66
115 117 29 57 30 155 0 212 -26 48 -92 111 -128 120 -14 3 -25 11 -25 18 0 6
-11 27 -24 46 -23 34 -23 36 -6 60 9 14 20 35 24 47 4 11 17 24 29 27 35 8
105 74 129 120 34 64 31 155 -7 224 -26 49 -80 97 -125 114 -8 3 -26 27 -39
52 l-24 46 23 43 c16 29 38 51 70 69 57 32 97 81 115 140 l12 43 479 6 c299 4
497 10 526 17 205 49 371 138 512 273 39 38 74 69 78 69 4 0 42 -22 84 -49z
m-3475 -21 c20 -96 150 -92 161 5 l3 30 80 0 80 0 3 -30 c11 -98 143 -101 158
-4 l7 39 78 0 79 0 0 -85 0 -85 -545 0 -545 0 0 78 c0 43 3 82 7 86 4 3 101 5
217 4 l210 -3 7 -35z m2177 -47 l3 -83 -356 0 -355 0 0 85 0 85 353 -2 352 -3
3 -82z m322 -3 l0 -80 -80 0 -80 0 0 80 0 80 80 0 80 0 0 -80z m1337 8 c12
-13 26 -42 32 -65 13 -46 42 -73 79 -73 31 0 82 -52 82 -83 0 -39 -36 -76 -80
-83 -47 -8 -75 -37 -84 -86 -8 -41 -45 -78 -81 -78 -36 0 -71 35 -83 83 -14
52 -34 72 -84 81 -43 8 -78 46 -78 85 0 34 32 69 68 76 57 12 77 29 94 84 10
29 25 59 35 67 28 21 77 17 100 -8z m-3517 -1008 l0 -760 -240 0 -240 0 0 760
0 760 240 0 240 0 0 -760z m1300 741 c-5 -11 -35 -27 -67 -38 -41 -13 -61 -25
-70 -43 -12 -23 -13 -19 -13 38 l0 62 80 0 c77 0 80 -1 70 -19z m2616 -75 c22
-19 56 -63 75 -98 l34 -63 3 -632 3 -633 -163 0 c-154 0 -161 1 -133 16 120
62 172 210 116 327 -24 49 -91 114 -126 123 -11 3 -32 26 -46 53 l-25 48 25
46 c14 25 35 48 46 51 36 9 102 74 126 123 58 119 3 271 -118 328 -19 9 -39
28 -44 43 -6 15 -17 34 -25 43 -13 15 -12 21 10 55 32 49 32 49 86 84 25 16
58 49 74 74 16 25 32 46 36 46 3 0 24 -15 46 -34z m-393 -313 c9 -9 20 -33 23
-54 8 -46 30 -68 92 -88 53 -18 79 -53 69 -93 -9 -34 -32 -57 -65 -63 -57 -12
-77 -29 -94 -84 -20 -61 -40 -80 -84 -81 -43 0 -62 18 -81 80 -19 56 -37 73
-95 85 -94 19 -86 144 11 160 47 8 76 38 85 86 13 72 86 99 139 52z m-2296
-138 c52 -9 83 -40 83 -82 0 -39 -37 -83 -69 -83 -31 0 -68 -20 -79 -44 -8
-15 -11 16 -11 123 l-1 144 20 -26 c12 -15 35 -28 57 -32z m2283 -505 c12 -6
26 -34 36 -65 16 -57 47 -85 92 -85 11 0 31 -12 46 -26 49 -50 26 -115 -47
-135 -55 -14 -83 -42 -91 -88 -7 -48 -37 -75 -81 -75 -44 0 -74 27 -81 75 -8
46 -36 74 -91 88 -48 13 -73 42 -73 84 0 33 40 77 70 77 37 0 79 29 86 58 10
48 26 82 43 92 21 13 68 12 91 0z m-2314 -139 c14 -6 34 -11 45 -11 32 0 69
-44 69 -83 0 -42 -31 -73 -83 -82 -22 -4 -45 -17 -57 -32 l-20 -26 1 144 c0
107 3 138 11 123 5 -12 21 -27 34 -33z"/>
<path d="M3105 4779 c-43 -12 -112 -74 -136 -120 -58 -116 -15 -261 98 -321
63 -34 109 -41 172 -27 69 15 128 61 164 129 25 48 28 63 24 120 -5 74 -22
113 -69 160 -62 63 -162 86 -253 59z"/>
<path d="M2656 3134 c-32 -33 -34 -74 -3 -109 19 -23 33 -28 92 -32 54 -5 77
-11 98 -29 32 -27 57 -30 90 -12 36 19 46 40 47 99 0 48 -4 60 -26 83 -26 25
-30 26 -149 26 -119 0 -123 -1 -149 -26z"/>
<path d="M3423 3136 c-25 -22 -28 -31 -28 -86 0 -55 3 -64 28 -86 36 -30 68
-30 104 0 22 18 43 24 95 28 54 3 73 9 93 28 34 32 34 82 0 115 -23 24 -30 25
-144 25 -112 0 -122 -2 -148 -24z"/>
<path d="M3838 2753 c-2 -81 -2 -150 -1 -151 1 -2 16 4 33 15 96 56 97 210 3
266 l-32 18 -3 -148z"/>
<path d="M2962 2654 c-55 -38 -46 -105 23 -182 61 -68 127 -95 214 -90 105 6
185 58 231 148 27 53 25 76 -9 111 -51 50 -84 38 -156 -55 -25 -32 -69 -46
-113 -34 -24 6 -40 21 -60 53 -38 63 -85 81 -130 49z"/>
<path d="M2635 1598 c-41 -22 -56 -67 -39 -113 9 -23 61 -47 87 -39 79 24 91
115 20 152 -27 15 -42 15 -68 0z"/>
<path d="M3648 1580 c-25 -26 -29 -36 -24 -63 9 -45 39 -71 81 -71 76 0 109
91 51 140 -37 33 -71 30 -108 -6z"/>
<path d="M2616 1259 c-20 -16 -26 -29 -26 -58 0 -49 32 -81 82 -81 70 0 103
86 53 135 -30 31 -73 32 -109 4z"/>
<path d="M3652 1260 c-30 -28 -36 -62 -18 -98 16 -32 34 -42 71 -42 37 0 55
10 71 42 40 77 -61 156 -124 98z"/>
<path d="M2612 927 c-72 -76 35 -183 112 -112 32 30 34 72 5 109 -27 35 -86
36 -117 3z"/>
<path d="M3653 935 c-41 -29 -38 -98 6 -132 39 -30 112 0 125 52 7 29 -15 79
-39 89 -28 11 -70 7 -92 -9z"/>
<path d="M2813 658 c-28 -32 -34 -54 -22 -85 13 -34 37 -52 72 -53 40 0 62 14
77 50 33 79 -70 151 -127 88z"/>
<path d="M3453 658 c-28 -32 -34 -54 -22 -85 22 -58 92 -72 134 -27 29 31 31
53 10 93 -24 47 -87 57 -122 19z"/>
<path d="M3150 567 c-58 -29 -58 -112 1 -143 36 -18 73 -10 99 23 28 36 25 70
-9 104 -32 32 -53 35 -91 16z"/>
</g>
</svg>
