<?xml version="1.0" encoding="iso-8859-1"?>
<!-- Generator: Adobe Illustrator 19.0.0, SVG Export Plug-In . SVG Version: 6.00 Build 0)  -->
<svg version="1.1" id="Capa_1" xmlns="http://www.w3.org/2000/svg" xmlns:xlink="http://www.w3.org/1999/xlink" x="0px" y="0px"
	 viewBox="0 0 512 512" style="enable-background:new 0 0 512 512;" xml:space="preserve">
<path style="fill:#303C42;" d="M496.375,139.958L372.042,15.625C361.958,5.552,348.583,0,334.333,0H177.667
	c-14.25,0-27.625,5.552-37.708,15.625L15.625,139.958C5.542,150.031,0,163.427,0,177.677v156.646
	c0,14.25,5.542,27.646,15.625,37.719l124.333,124.333C150.042,506.448,163.417,512,177.667,512h156.667
	c14.25,0,27.625-5.552,37.708-15.625l124.333-124.333C506.458,361.969,512,348.573,512,334.323V177.677
	C512,163.427,506.458,150.031,496.375,139.958z"/>
<path style="fill:#E53935;" d="M490.667,334.323c0,8.552-3.333,16.583-9.375,22.635L356.958,481.292
	c-5.958,5.958-14.208,9.375-22.625,9.375H177.667c-8.417,0-16.667-3.417-22.625-9.375L30.708,356.958
	c-6.042-6.052-9.375-14.083-9.375-22.635V177.677c0-8.552,3.333-16.583,9.375-22.635L155.042,30.708
	c5.958-5.958,14.208-9.375,22.625-9.375h156.667c8.417,0,16.667,3.417,22.625,9.375l124.333,124.333
	c6.042,6.052,9.375,14.083,9.375,22.635V334.323z"/>
<path style="opacity:0.1;enable-background:new    ;" d="M481.292,155.042l-1.573-1.573c0.086,0.961,0.281,1.898,0.281,2.875V312.99
	c0,8.552-3.333,16.583-9.375,22.635L346.292,459.958c-5.958,5.958-14.208,9.375-22.625,9.375H167
	c-8.417,0-16.667-3.417-22.625-9.375l-122.76-122.76c0.668,7.454,3.742,14.4,9.094,19.76l124.333,124.333
	c5.958,5.958,14.208,9.375,22.625,9.375h156.667c8.417,0,16.667-3.417,22.625-9.375l124.333-124.333
	c6.042-6.052,9.375-14.083,9.375-22.635V177.677C490.667,169.125,487.333,161.094,481.292,155.042z"/>
<path style="fill:#303C42;" d="M363.833,203.75c-12.792,2.75-23.667,10.385-30.771,21.802L320,248.177V117.333
	c0-17.646-14.354-32-32-32c-4.212,0-8.215,0.863-11.901,2.349C272.41,74.082,260.085,64,245.333,64
	c-11.365,0-21.299,5.997-26.978,14.949c-4.656-2.647-9.96-4.283-15.689-4.283c-17.646,0-32,14.354-32,32v23.298
	C167.314,128.77,163.758,128,160,128c-17.646,0-32,14.354-32,32v167.24C128,393.823,182.167,448,248.75,448
	c53.729,0,100.229-34.583,115.708-86.146l40.458-139.26c1.292-4.469-0.458-9.271-4.333-11.854
	C389.688,203.479,376.688,200.979,363.833,203.75z"/>
<path style="fill:#FFFFFF;" d="M344,355.813c-12.729,42.375-51,70.854-95.25,70.854c-54.813,0-99.417-44.604-99.417-99.427V160
	c0-5.885,4.792-10.667,10.667-10.667s10.667,4.781,10.667,10.667v64c0,5.896,4.771,10.667,10.667,10.667
	c5.896,0,10.667-4.771,10.667-10.667V106.667C192,100.781,196.792,96,202.667,96s10.667,4.781,10.667,10.667v106.667
	c0,5.896,4.771,10.667,10.667,10.667c5.896,0,10.667-4.771,10.667-10.667V96c0-5.885,4.792-10.667,10.667-10.667S256,90.115,256,96
	v128c0,5.896,4.771,10.667,10.667,10.667c5.896,0,10.667-4.771,10.667-10.667V117.333c0-5.885,4.792-10.667,10.667-10.667
	s10.667,4.781,10.667,10.667V288c0,4.833,3.25,9.052,7.917,10.302c4.688,1.292,9.563-0.792,11.979-4.969l32.771-56.802
	c3.854-6.156,9.896-10.396,17-11.927c4.583-0.979,9.229-0.771,13.604,0.604L344,355.813z"/>
<path style="opacity:0.1;enable-background:new    ;" d="M377.641,224.451L342,347.146C329.271,389.521,291,418,246.75,418
	c-45.995,0-84.432-31.564-95.728-74.063c7.999,46.861,48.632,82.729,97.728,82.729c44.25,0,82.521-28.479,95.25-70.854
	l37.938-130.604C380.539,224.77,379.083,224.651,377.641,224.451z"/>
<linearGradient id="SVGID_1_" gradientUnits="userSpaceOnUse" x1="-46.1796" y1="639.8361" x2="-23.2266" y2="629.1326" gradientTransform="matrix(21.3333 0 0 -21.3333 996.3334 13791.667)">
	<stop  offset="0" style="stop-color:#FFFFFF;stop-opacity:0.2"/>
	<stop  offset="1" style="stop-color:#FFFFFF;stop-opacity:0"/>
</linearGradient>
<path style="fill:url(#SVGID_1_);" d="M496.375,139.958L372.042,15.625C361.958,5.552,348.583,0,334.333,0H177.667
	c-14.25,0-27.625,5.552-37.708,15.625L15.625,139.958C5.542,150.031,0,163.427,0,177.677v156.646
	c0,14.25,5.542,27.646,15.625,37.719l124.333,124.333C150.042,506.448,163.417,512,177.667,512h156.667
	c14.25,0,27.625-5.552,37.708-15.625l124.333-124.333C506.458,361.969,512,348.573,512,334.323V177.677
	C512,163.427,506.458,150.031,496.375,139.958z"/>
<g>
</g>
<g>
</g>
<g>
</g>
<g>
</g>
<g>
</g>
<g>
</g>
<g>
</g>
<g>
</g>
<g>
</g>
<g>
</g>
<g>
</g>
<g>
</g>
<g>
</g>
<g>
</g>
<g>
</g>
</svg>
