<?xml version="1.0" encoding="iso-8859-1"?>
<!-- Generator: Adobe Illustrator 19.0.0, SVG Export Plug-In . SVG Version: 6.00 Build 0)  -->
<svg version="1.1" id="Layer_1" xmlns="http://www.w3.org/2000/svg" xmlns:xlink="http://www.w3.org/1999/xlink" x="0px" y="0px"
	 viewBox="0 0 512 512" style="enable-background:new 0 0 512 512;" xml:space="preserve">
<path style="fill:#FDB50D;" d="M337.067,460.8v42.667h-230.4c-14.14,0-25.6-11.46-25.6-25.6V102.4h25.6v332.8
	c0,14.14,11.46,25.6,25.6,25.6H337.067z"/>
<polygon style="fill:#F6981E;" points="430.933,68.267 430.933,76.8 362.667,76.8 362.667,8.534 371.2,8.534 "/>
<path style="fill:#FDB50D;" d="M371.2,435.2v42.667c0,14.14-11.46,25.6-25.6,25.6H106.667c-14.14,0-25.6-11.46-25.6-25.6V102.4
	c0-14.14,11.46-25.6,25.6-25.6H140.8v332.8c0,14.14,11.46,25.6,25.6,25.6H371.2z"/>
<path style="fill:#F6981E;" d="M362.667,76.8V8.534H166.4c-14.14,0-25.6,11.46-25.6,25.6V409.6c0,14.14,11.46,25.6,25.6,25.6
	h238.933c14.14,0,25.6-11.46,25.6-25.6V76.8H362.667z"/>
<path style="fill:#FDB50D;" d="M396.8,110.934v332.8H166.4c-14.14,0-25.6-11.46-25.6-25.6V42.667h187.733v51.2
	c0,9.429,7.637,17.067,17.067,17.067H396.8z"/>
<path style="fill:#F6981E;" d="M371.2,443.734v25.6H132.267c-14.14,0-25.6-11.46-25.6-25.6v-358.4H140.8v332.8
	c0,14.14,11.46,25.6,25.6,25.6H371.2z"/>
<path d="M405.333,443.734H166.4c-18.85,0-34.133-15.283-34.133-34.133V34.134c0-2.091,0.171-4.173,0.512-6.229
	c0.99-5.214,3.183-10.121,6.4-14.336c0.495-0.64,1.033-1.237,1.621-1.792l1.024-1.109l0.683-0.683
	C148.847,3.644,157.432,0.06,166.4,0h196.267c4.71,0,8.533,3.823,8.533,8.533v59.733h59.733c4.71,0,8.533,3.823,8.533,8.533v332.8
	C439.467,428.45,424.183,443.734,405.333,443.734z M153.856,22.614l-0.683,0.768c-1.809,2.236-3.063,4.864-3.669,7.68
	c-0.137,1.015-0.196,2.048-0.171,3.072V409.6c0,9.429,7.637,17.067,17.067,17.067h238.933c9.429,0,17.067-7.637,17.067-17.067
	V85.334h-59.733c-4.71,0-8.533-3.823-8.533-8.533V17.067H166.4c-4.548,0-8.909,1.809-12.117,5.035L153.856,22.614z"/>
<path d="M430.933,85.334h-68.267c-4.71,0-8.533-3.823-8.533-8.533V8.534c0-4.71,3.823-8.533,8.533-8.533h8.533
	c2.27-0.017,4.446,0.879,6.059,2.475l59.733,59.733c1.596,1.613,2.492,3.789,2.475,6.059V76.8
	C439.467,81.511,435.644,85.334,430.933,85.334z M371.2,68.267h47.701L371.2,20.566V68.267z"/>
<path d="M345.6,512H106.667c-18.85,0-34.133-15.283-34.133-34.133V102.4c0-18.85,15.283-34.133,34.133-34.133H140.8
	c4.71,0,8.533,3.823,8.533,8.533v332.8c0,9.429,7.637,17.067,17.067,17.067h204.8c4.71,0,8.533,3.823,8.533,8.533v42.667
	C379.733,496.717,364.45,512,345.6,512z M106.667,85.334c-9.429,0-17.067,7.637-17.067,17.067v375.467
	c0,9.429,7.637,17.067,17.067,17.067H345.6c9.429,0,17.067-7.637,17.067-17.067v-34.133H166.4c-18.85,0-34.133-15.283-34.133-34.133
	V85.334H106.667z"/>
<path d="M379.733,179.2H192c-4.71,0-8.533-3.823-8.533-8.533s3.823-8.533,8.533-8.533h187.733c4.71,0,8.533,3.823,8.533,8.533
	S384.444,179.2,379.733,179.2z"/>
<path d="M379.733,281.6H192c-4.71,0-8.533-3.823-8.533-8.533c0-4.71,3.823-8.533,8.533-8.533h187.733
	c4.71,0,8.533,3.823,8.533,8.533C388.267,277.777,384.444,281.6,379.733,281.6z"/>
<path d="M285.867,213.334H192c-4.71,0-8.533-3.823-8.533-8.533s3.823-8.533,8.533-8.533h93.867c4.71,0,8.533,3.823,8.533,8.533
	S290.577,213.334,285.867,213.334z"/>
<path d="M379.733,213.334h-51.2c-4.71,0-8.533-3.823-8.533-8.533s3.823-8.533,8.533-8.533h51.2c4.71,0,8.533,3.823,8.533,8.533
	S384.444,213.334,379.733,213.334z"/>
<path d="M379.733,247.467h-93.867c-4.71,0-8.533-3.823-8.533-8.533c0-4.71,3.823-8.533,8.533-8.533h93.867
	c4.71,0,8.533,3.823,8.533,8.533C388.267,243.644,384.444,247.467,379.733,247.467z"/>
<path d="M243.2,247.467H192c-4.71,0-8.533-3.823-8.533-8.533c0-4.71,3.823-8.533,8.533-8.533h51.2c4.71,0,8.533,3.823,8.533,8.533
	C251.733,243.644,247.91,247.467,243.2,247.467z"/>
<g>
	<path style="fill:#C90006;" d="M379.733,179.2H192c-4.71,0-8.533-3.823-8.533-8.533s3.823-8.533,8.533-8.533h187.733
		c4.71,0,8.533,3.823,8.533,8.533S384.444,179.2,379.733,179.2z"/>
	<path style="fill:#C90006;" d="M379.733,281.6H192c-4.71,0-8.533-3.823-8.533-8.533c0-4.71,3.823-8.533,8.533-8.533h187.733
		c4.71,0,8.533,3.823,8.533,8.533C388.267,277.777,384.444,281.6,379.733,281.6z"/>
	<path style="fill:#C90006;" d="M285.867,213.334H192c-4.71,0-8.533-3.823-8.533-8.533s3.823-8.533,8.533-8.533h93.867
		c4.71,0,8.533,3.823,8.533,8.533S290.577,213.334,285.867,213.334z"/>
	<path style="fill:#C90006;" d="M379.733,213.334h-51.2c-4.71,0-8.533-3.823-8.533-8.533s3.823-8.533,8.533-8.533h51.2
		c4.71,0,8.533,3.823,8.533,8.533S384.444,213.334,379.733,213.334z"/>
	<path style="fill:#C90006;" d="M379.733,247.467h-93.867c-4.71,0-8.533-3.823-8.533-8.533c0-4.71,3.823-8.533,8.533-8.533h93.867
		c4.71,0,8.533,3.823,8.533,8.533C388.267,243.644,384.444,247.467,379.733,247.467z"/>
	<path style="fill:#C90006;" d="M243.2,247.467H192c-4.71,0-8.533-3.823-8.533-8.533c0-4.71,3.823-8.533,8.533-8.533h51.2
		c4.71,0,8.533,3.823,8.533,8.533C251.733,243.644,247.91,247.467,243.2,247.467z"/>
</g>
<g>
</g>
<g>
</g>
<g>
</g>
<g>
</g>
<g>
</g>
<g>
</g>
<g>
</g>
<g>
</g>
<g>
</g>
<g>
</g>
<g>
</g>
<g>
</g>
<g>
</g>
<g>
</g>
<g>
</g>
</svg>
