<?xml version="1.0" encoding="iso-8859-1"?>
<!-- Generator: Adobe Illustrator 19.0.0, SVG Export Plug-In . SVG Version: 6.00 Build 0)  -->
<svg version="1.1" id="Capa_1" xmlns="http://www.w3.org/2000/svg" xmlns:xlink="http://www.w3.org/1999/xlink" x="0px" y="0px"
	 viewBox="0 0 512 512" style="enable-background:new 0 0 512 512;" xml:space="preserve">
<path style="fill:#FD003A;" d="M398.5,0c-51.599,0-81.599,34.501-97.2,61.8c0-0.3-0.3-0.3-0.3-0.601C285.399,33.9,254.399,0,202.8,0
	C138.9,0,90.6,51.899,90.6,120.601c0,72.9,58.499,121.8,146.999,195.899c25.201,21,35.801,29.101,47.201,39
	c4.499,3.9,10.199,6.301,16.199,6.901c8.101,0.899,16.5-1.201,22.8-6.901c49.2-42.599,84.699-72.599,114.699-101.1
	C476.6,217.8,512,176.4,512,120.601C512,51.899,462.7,0,398.5,0z"/>
<path style="fill:#E50027;" d="M512,120.601c0,55.8-35.4,97.2-73.5,133.799c-30,28.5-65.499,58.5-114.699,101.1
	c-6.301,5.7-14.7,7.8-22.8,6.901V61.199c0,0.3,0.3,0.3,0.3,0.601C316.901,34.501,346.901,0,398.5,0C462.7,0,512,51.899,512,120.601z
	"/>
<path style="fill:#FEDBAB;" d="M285.7,321.301L240.601,270H240V150c0-16.5-13.5-30-30-30s-30,13.5-30,30v90c0-16.5-13.5-30-30-30
	s-30,13.5-30,30v30c0-16.5-13.5-30-30-30s-30,13.5-30,30v30c0-16.5-13.5-30-30-30S0,283.5,0,300v95.4c0,7.8,1.199,15.901,3.9,23.699
	l27.001,82.7c1.8,6,7.5,10.201,14.099,10.201h180c6,0,11.7-3.6,13.801-9.3L293.2,367.5C299.5,351.899,296.499,334.2,285.7,321.301z"
	/>
<path style="fill:#FEC478;" d="M293.2,367.5l-54.399,135.2c-2.1,5.7-7.8,9.3-13.801,9.3h-75V210c16.5,0,30,13.5,30,30v-90
	c0-16.5,13.5-30,30-30s30,13.5,30,30v120h0.601l45.099,51.301C296.499,334.2,299.5,351.899,293.2,367.5z"/>
<g>
</g>
<g>
</g>
<g>
</g>
<g>
</g>
<g>
</g>
<g>
</g>
<g>
</g>
<g>
</g>
<g>
</g>
<g>
</g>
<g>
</g>
<g>
</g>
<g>
</g>
<g>
</g>
<g>
</g>
</svg>
