<svg xmlns="http://www.w3.org/2000/svg" xmlns:xlink="http://www.w3.org/1999/xlink" id="Capa_1" x="0" y="0" enable-background="new 0 0 490.667 490.667" version="1.1" viewBox="0 0 490.667 490.667" xml:space="preserve"><path fill="#FFC107" d="M245.333,0C109.839,0,0,109.839,0,245.333s109.839,245.333,245.333,245.333	s245.333-109.839,245.333-245.333C490.514,109.903,380.764,0.153,245.333,0z"/><g><path fill="#FAFAFA" d="M96,298.667c-5.891,0-10.667-4.776-10.667-10.667v-85.333C85.333,196.776,90.109,192,96,192h42.667 c5.891,0,10.667,4.776,10.667,10.667s-4.776,10.667-10.667,10.667h-32V288C106.667,293.891,101.891,298.667,96,298.667z"/><path fill="#FAFAFA" d="M117.333,256H96c-5.891,0-10.667-4.776-10.667-10.667c0-5.891,4.776-10.667,10.667-10.667h21.333 c5.891,0,10.667,4.776,10.667,10.667C128,251.224,123.224,256,117.333,256z"/></g><g><path fill="#FFA000" d="M378.432,149.333c-3.235,0.001-6.295-1.467-8.32-3.989c-55.09-68.925-155.624-80.141-224.549-25.051 c-9.253,7.396-17.655,15.798-25.051,25.051c-3.523,4.721-10.207,5.693-14.928,2.169s-5.693-10.207-2.169-14.928 c0.152-0.204,0.312-0.403,0.479-0.596c62.44-78.103,176.373-90.801,254.476-28.361c10.475,8.374,19.987,17.886,28.361,28.361 c3.688,4.594,2.953,11.308-1.641,14.995c-1.894,1.52-4.25,2.349-6.679,2.349H378.432z"/><path fill="#FFA000" d="M245.333,426.667c-49.776,0.138-97.378-20.38-131.456-56.661c-4.19-4.141-4.23-10.894-0.09-15.085 c4.141-4.19,10.894-4.23,15.085-0.09c0.162,0.161,0.32,0.326,0.472,0.497c60.485,64.065,161.452,66.967,225.517,6.483 c2.223-2.098,4.384-4.26,6.483-6.483c3.916-4.401,10.658-4.795,15.059-0.879c4.401,3.916,4.795,10.658,0.879,15.059 c-0.152,0.171-0.309,0.336-0.471,0.497C342.728,406.292,295.116,426.81,245.333,426.667z"/></g><g><path fill="#FAFAFA" d="M224,298.667c-2.831,0.005-5.548-1.115-7.552-3.115L192,271.083V288 c0,5.891-4.776,10.667-10.667,10.667c-5.891,0-10.667-4.776-10.667-10.667v-85.333c0-5.891,4.776-10.667,10.667-10.667h21.333 c17.673,0.036,31.971,14.392,31.935,32.065c-0.032,16.024-11.912,29.553-27.796,31.658l24.725,24.725 c4.171,4.16,4.179,10.914,0.019,15.085C229.549,297.539,226.833,298.666,224,298.667z M192,234.667h10.667 c5.891,0,10.667-4.776,10.667-10.667c0-5.891-4.776-10.667-10.667-10.667H192V234.667z"/><path fill="#FAFAFA" d="M309.333,298.667h-42.667c-5.891,0-10.667-4.776-10.667-10.667v-85.333 c0-5.891,4.776-10.667,10.667-10.667h42.667c5.891,0,10.667,4.776,10.667,10.667s-4.776,10.667-10.667,10.667h-32v64h32 c5.891,0,10.667,4.776,10.667,10.667C320,293.891,315.224,298.667,309.333,298.667z"/><path fill="#FAFAFA" d="M288,256h-21.333c-5.891,0-10.667-4.776-10.667-10.667c0-5.891,4.776-10.667,10.667-10.667H288 c5.891,0,10.667,4.776,10.667,10.667C298.667,251.224,293.891,256,288,256z"/><path fill="#FAFAFA" d="M394.667,298.667H352c-5.891,0-10.667-4.776-10.667-10.667v-85.333 c0-5.891,4.776-10.667,10.667-10.667h42.667c5.891,0,10.667,4.776,10.667,10.667s-4.776,10.667-10.667,10.667h-32v64h32 c5.891,0,10.667,4.776,10.667,10.667C405.333,293.891,400.558,298.667,394.667,298.667z"/><path fill="#FAFAFA" d="M373.333,256H352c-5.891,0-10.667-4.776-10.667-10.667c0-5.891,4.776-10.667,10.667-10.667h21.333 c5.891,0,10.667,4.776,10.667,10.667C384,251.224,379.224,256,373.333,256z"/></g></svg>