<?xml version="1.0" encoding="utf-8"?>
<!-- Generator: Adobe Illustrator 21.0.2, SVG Export Plug-In . SVG Version: 6.00 Build 0)  -->
<svg version="1.1" id="Isolation_Mode" xmlns="http://www.w3.org/2000/svg" xmlns:xlink="http://www.w3.org/1999/xlink" x="0px"
	 y="0px" viewBox="0 0 60 60" style="enable-background:new 0 0 60 60;" xml:space="preserve">
<style type="text/css">
	.Graphic_x0020_Style_x0020_2{fill:url(#SVGID_1_);}
	.st0{fill:#5BC9F4;}
	.st1{fill:url(#SVGID_2_);}
	.st2{fill:url(#SVGID_3_);}
	.st3{fill:url(#SVGID_4_);}
</style>
<linearGradient id="SVGID_1_" gradientUnits="userSpaceOnUse" x1="-47.5" y1="-30" x2="-48.2071" y2="-29.2929">
	<stop  offset="0" style="stop-color:#EF4547"/>
	<stop  offset="1" style="stop-color:#C6186D"/>
</linearGradient>
<g>
	<path class="st0" d="M4.1,0.9C3.5,1.6,3.1,2.8,3.1,4.2v51.6c0,1.4,0.4,2.6,1.1,3.3l0.2,0.2l28.9-28.9V30v-0.3L4.3,0.8L4.1,0.9z"/>
	<linearGradient id="SVGID_2_" gradientUnits="userSpaceOnUse" x1="52.3674" y1="30.0007" x2="-4.0775" y2="30.0007">
		<stop  offset="0" style="stop-color:#FEE000"/>
		<stop  offset="0.1941" style="stop-color:#FCCF0B"/>
		<stop  offset="0.5469" style="stop-color:#FAB318"/>
		<stop  offset="0.8279" style="stop-color:#F9A21B"/>
		<stop  offset="1" style="stop-color:#F99B1C"/>
	</linearGradient>
	<path class="st1" d="M42.9,40l-9.6-9.6V30v-0.3l9.6-9.6l0.2,0.1l11.4,6.5c3.3,1.9,3.3,4.9,0,6.7l-11.4,6.5L42.9,40z"/>
	<linearGradient id="SVGID_3_" gradientUnits="userSpaceOnUse" x1="37.7192" y1="35.3537" x2="-15.37" y2="88.4429">
		<stop  offset="0" style="stop-color:#EF4547"/>
		<stop  offset="1" style="stop-color:#C6186D"/>
	</linearGradient>
	<path class="st2" d="M43.1,39.9L33.2,30L4.1,59.1C5.2,60.2,7,60.4,9,59.2L43.1,39.9"/>
	<linearGradient id="SVGID_4_" gradientUnits="userSpaceOnUse" x1="-15.6066" y1="-28.6798" x2="27.7394" y2="14.6662">
		<stop  offset="0" style="stop-color:#279E6F"/>
		<stop  offset="0.3168" style="stop-color:#4DAB6D"/>
		<stop  offset="0.7398" style="stop-color:#6ABA6A"/>
		<stop  offset="1" style="stop-color:#74C169"/>
	</linearGradient>
	<path class="st3" d="M43.1,20.1L9,0.8c-2-1.1-3.8-1-4.8,0.1L33.2,30L43.1,20.1z"/>
</g>
</svg>
