<svg xmlns="http://www.w3.org/2000/svg" xmlns:xlink="http://www.w3.org/1999/xlink" id="Isolation_Mode" x="0" y="0" enable-background="new 0 0 60 60" version="1.1" viewBox="0 0 60 60" xml:space="preserve"><style type="text/css">.st0{fill:#5bc9f4}.st1{fill:url(#SVGID_2_)}.st2{fill:url(#SVGID_3_)}.st3{fill:url(#SVGID_4_)}</style><linearGradient id="SVGID_1_" x1="-47.5" x2="-48.207" y1="-30" y2="-29.293" gradientUnits="userSpaceOnUse"><stop offset="0" stop-color="#EF4547"/><stop offset="1" stop-color="#C6186D"/></linearGradient><g><path d="M4.1,0.9C3.5,1.6,3.1,2.8,3.1,4.2v51.6c0,1.4,0.4,2.6,1.1,3.3l0.2,0.2l28.9-28.9V30v-0.3L4.3,0.8L4.1,0.9z" class="st0"/><linearGradient id="SVGID_2_" x1="52.367" x2="-4.077" y1="30.001" y2="30.001" gradientUnits="userSpaceOnUse"><stop offset="0" stop-color="#FEE000"/><stop offset=".194" stop-color="#FCCF0B"/><stop offset=".547" stop-color="#FAB318"/><stop offset=".828" stop-color="#F9A21B"/><stop offset="1" stop-color="#F99B1C"/></linearGradient><path d="M42.9,40l-9.6-9.6V30v-0.3l9.6-9.6l0.2,0.1l11.4,6.5c3.3,1.9,3.3,4.9,0,6.7l-11.4,6.5L42.9,40z" class="st1"/><linearGradient id="SVGID_3_" x1="37.719" x2="-15.37" y1="35.354" y2="88.443" gradientUnits="userSpaceOnUse"><stop offset="0" stop-color="#EF4547"/><stop offset="1" stop-color="#C6186D"/></linearGradient><path d="M43.1,39.9L33.2,30L4.1,59.1C5.2,60.2,7,60.4,9,59.2L43.1,39.9" class="st2"/><linearGradient id="SVGID_4_" x1="-15.607" x2="27.739" y1="-28.68" y2="14.666" gradientUnits="userSpaceOnUse"><stop offset="0" stop-color="#279E6F"/><stop offset=".317" stop-color="#4DAB6D"/><stop offset=".74" stop-color="#6ABA6A"/><stop offset="1" stop-color="#74C169"/></linearGradient><path d="M43.1,20.1L9,0.8c-2-1.1-3.8-1-4.8,0.1L33.2,30L43.1,20.1z" class="st3"/></g></svg>