<?xml version="1.0" encoding="iso-8859-1"?>
<!-- Generator: Adobe Illustrator 19.0.0, SVG Export Plug-In . SVG Version: 6.00 Build 0)  -->
<svg version="1.1" id="Capa_1" xmlns="http://www.w3.org/2000/svg" xmlns:xlink="http://www.w3.org/1999/xlink" x="0px" y="0px"
	 viewBox="0 0 512 512" style="enable-background:new 0 0 512 512;" xml:space="preserve">
<g>
	<path style="fill:#FFCF40;" d="M384,42.667c-47.13,0-85.333,38.204-85.333,85.333S336.87,213.333,384,213.333
		S469.333,175.13,469.333,128C469.282,80.896,431.104,42.718,384,42.667z"/>
	<path style="fill:#FFCF40;" d="M426.667,298.667c-47.13,0-85.333,38.204-85.333,85.333s38.204,85.333,85.333,85.333
		S512,431.13,512,384C511.949,336.896,473.771,298.718,426.667,298.667z"/>
	<path style="fill:#FFCF40;" d="M85.333,0C38.204,0,0,38.204,0,85.333s38.204,85.333,85.333,85.333s85.333-38.204,85.333-85.333
		C170.615,38.229,132.437,0.051,85.333,0z"/>
</g>
<path style="fill:#FAE3CB;" d="M315.733,396.8c0-11.785-9.549-21.333-21.333-21.333c11.785,0,21.333-9.549,21.333-21.333
	c0-11.785-9.549-21.333-21.333-21.333h-81.067l11.341-85.06c3.703-27.776-2.287-55.97-16.964-79.838
	c-2.944-3.686-8.311-4.284-11.989-1.34c-1.57,1.254-2.645,3.021-3.046,4.992l-3.413,22.733c-1.041,6.997-2.688,13.884-4.924,20.591
	l-31.488,94.583c-4.651,13.935-17.69,23.339-32.384,23.339H76.8v170.667h217.6c11.785,0,21.333-9.549,21.333-21.333
	S306.185,460.8,294.4,460.8c11.785,0,21.333-9.549,21.333-21.333c0-11.785-9.549-21.333-21.333-21.333
	C306.185,418.133,315.733,408.585,315.733,396.8z"/>
<rect x="8.533" y="332.8" style="fill:#4DA7FF;" width="68.267" height="170.667"/>
<g>
	<circle style="fill:#FF8838;" cx="384" cy="128" r="59.733"/>
	<circle style="fill:#FF8838;" cx="426.667" cy="384" r="59.733"/>
	<circle style="fill:#FF8838;" cx="85.333" cy="85.333" r="59.733"/>
	<polygon style="fill:#FF8838;" points="34.133,179.2 17.067,179.2 17.067,196.267 0,196.267 0,213.333 17.067,213.333 
		17.067,230.4 34.133,230.4 34.133,213.333 51.2,213.333 51.2,196.267 34.133,196.267 	"/>
	<polygon style="fill:#FF8838;" points="494.933,221.867 477.867,221.867 477.867,238.933 460.8,238.933 460.8,256 477.867,256 
		477.867,273.067 494.933,273.067 494.933,256 512,256 512,238.933 494.933,238.933 	"/>
	<rect x="358.4" y="494.933" style="fill:#FF8838;" width="17.067" height="17.067"/>
	<rect x="187.733" style="fill:#FF8838;" width="17.067" height="17.067"/>
	<polygon style="fill:#FF8838;" points="315.733,34.133 315.733,17.067 298.667,17.067 298.667,0 281.6,0 281.6,17.067 
		264.533,17.067 264.533,34.133 281.6,34.133 281.6,51.2 298.667,51.2 298.667,34.133 	"/>
	<rect x="256" y="170.667" style="fill:#FF8838;" width="17.067" height="17.067"/>
	<rect x="307.2" y="230.4" style="fill:#FF8838;" width="17.067" height="17.067"/>
	<polygon style="fill:#FF8838;" points="494.933,17.067 494.933,0 477.867,0 477.867,17.067 460.8,17.067 460.8,34.133 
		477.867,34.133 477.867,51.2 494.933,51.2 494.933,34.133 512,34.133 512,17.067 	"/>
	<rect x="68.267" y="230.4" style="fill:#FF8838;" width="17.067" height="17.067"/>
</g>
<g>
</g>
<g>
</g>
<g>
</g>
<g>
</g>
<g>
</g>
<g>
</g>
<g>
</g>
<g>
</g>
<g>
</g>
<g>
</g>
<g>
</g>
<g>
</g>
<g>
</g>
<g>
</g>
<g>
</g>
</svg>
