<?xml version="1.0" encoding="iso-8859-1"?>
<!-- Generator: Adobe Illustrator 19.0.0, SVG Export Plug-In . SVG Version: 6.00 Build 0)  -->
<svg version="1.1" id="Capa_1" xmlns="http://www.w3.org/2000/svg" xmlns:xlink="http://www.w3.org/1999/xlink" x="0px" y="0px"
	 viewBox="0 0 512 512" style="enable-background:new 0 0 512 512;" xml:space="preserve">
<path style="fill:#FFDC40;" d="M407,362c-21.861,0-41.563,9.406-55.284,24.379L175.732,280.904C178.486,273.106,180,264.729,180,256
	s-1.514-17.106-4.268-24.904l175.984-105.475C365.437,140.594,385.139,150,407,150c41.355,0,75-33.645,75-75S448.355,0,407,0
	s-75,33.645-75,75c0,8.729,1.514,17.106,4.268,24.904L160.284,205.379C146.563,190.406,126.861,181,105,181
	c-41.355,0-75,33.645-75,75s33.645,75,75,75c21.861,0,41.563-9.406,55.284-24.379l175.984,105.475
	C333.514,419.894,332,428.271,332,437c0,41.355,33.645,75,75,75s75-33.645,75-75S448.355,362,407,362z"/>
<g>
	<path style="fill:#FFAB15;" d="M266,142.019v34.975l85.716-51.373C365.437,140.594,385.139,150,407,150c41.355,0,75-33.645,75-75
		S448.355,0,407,0s-75,33.645-75,75c0,8.729,1.514,17.106,4.268,24.904L266,142.019z"/>
	<path style="fill:#FFAB15;" d="M407,362c-21.861,0-41.563,9.406-55.284,24.379L266,335.006v34.975l70.268,42.115
		C333.514,419.894,332,428.271,332,437c0,41.355,33.645,75,75,75s75-33.645,75-75S448.355,362,407,362z"/>
</g>
<path style="fill:#FF9400;" d="M407,30c24.813,0,45,20.187,45,45s-20.187,45-45,45s-45-20.187-45-45S382.187,30,407,30z"/>
<path style="fill:#FFAB15;" d="M105,301c-24.813,0-45-20.187-45-45s20.187-45,45-45s45,20.187,45,45S129.813,301,105,301z"/>
<path style="fill:#FF9400;" d="M407,482c-24.813,0-45-20.187-45-45s20.187-45,45-45s45,20.187,45,45S431.813,482,407,482z"/>
<g>
</g>
<g>
</g>
<g>
</g>
<g>
</g>
<g>
</g>
<g>
</g>
<g>
</g>
<g>
</g>
<g>
</g>
<g>
</g>
<g>
</g>
<g>
</g>
<g>
</g>
<g>
</g>
<g>
</g>
</svg>
