<svg xmlns="http://www.w3.org/2000/svg" xmlns:xlink="http://www.w3.org/1999/xlink" id="Layer_1" x="0" y="0" enable-background="new 0 0 392.663 392.663" version="1.1" viewBox="0 0 392.663 392.663" xml:space="preserve"><path fill="#FFC10D" d="M48.614,295.402c-14.739,0-26.764,11.96-26.764,26.764c0,14.739,11.96,26.764,26.764,26.764h11.184	l19.782-53.527L48.614,295.402L48.614,295.402z"/><path fill="#56ACE0" d="M83.071,348.994h42.085c14.739,0,26.764-11.96,26.764-26.764c0-14.739-11.96-26.764-26.764-26.764	h-22.303L83.071,348.994z"/><path fill="#FFF" d="M343.919,295.402h-178.23c5.107,7.628,8.145,16.873,8.145,26.764c0,9.891-3.038,19.071-8.145,26.764	h178.295c14.739,0,26.764-11.96,26.764-26.764C370.747,307.426,358.723,295.402,343.919,295.402z"/><path fill="#56ACE0" d="M48.614,103.402c-14.739,0-26.764,11.96-26.764,26.764c0,14.739,11.96,26.828,26.764,26.828h11.184	l19.782-53.527H48.614V103.402z"/><g><polygon fill="#FFC10D" points="102.853 103.402 83.071 156.929 123.798 156.929 143.58 103.402"/><path fill="#FFC10D" d="M211.006,156.929h29.673c14.739,0,26.764-11.96,26.764-26.764s-11.96-26.764-26.764-26.764h-9.826 L211.006,156.929z"/></g><polygon fill="#56ACE0" points="166.853 103.402 147.071 156.929 187.798 156.929 207.58 103.402"/><path fill="#FFF" d="M343.919,103.402h-62.836c5.107,7.628,8.145,16.873,8.145,26.764s-3.038,19.071-8.145,26.764h62.836	c14.739,0,26.764-11.96,26.764-26.764S358.723,103.402,343.919,103.402z"/><g><path fill="#194F82" d="M113.196,254.61c16.743,0,24.372-13.446,24.372-23.725c0-10.279-7.564-23.725-24.372-23.725 c-17.39,0-24.889,14.481-24.372,23.725C88.372,240.194,95.806,254.61,113.196,254.61z M113.196,216.145 c11.055,0,13.123,10.408,13.188,14.739c0,4.331-2.133,14.739-13.188,14.739c-10.602,0-13.123-10.408-13.188-14.739 C100.073,226.554,102.594,216.145,113.196,216.145z"/><path fill="#194F82" d="M30.642,245.495c-4.202,0.259-8.727-2.133-13.576-6.465l-6.012,7.434 c5.818,5.301,12.283,8.275,19.459,8.016c14.675-0.517,16.679-9.632,16.679-13.77c0-4.137-1.164-7.176-3.556-9.374 c-2.392-2.198-5.689-3.685-10.02-4.784c-4.331-1.099-7.111-2.004-8.275-2.78s-1.745-1.875-1.745-3.168 c0-1.293,0.711-4.331,5.495-4.396c4.267-0.065,8.275,1.487,12.283,4.461l5.172-7.434c-6.594-5.301-14.093-6.012-17.067-6.012 c-4.655,0-16.291,1.875-16.291,13.511c0,4.331,1.228,7.499,3.685,9.503s6.335,3.62,11.636,4.913c3.297,0.84,5.56,1.616,6.723,2.457 c1.164,0.776,1.681,1.875,1.681,3.232C36.59,242.392,36.137,245.301,30.642,245.495z"/><polygon fill="#194F82" points="55.919 208.323 55.919 254.093 85.592 254.093 85.592 244.978 66.133 244.978 66.133 208.323"/><polygon fill="#194F82" points="178.166 208.323 167.499 208.323 159.418 234.699 150.368 208.323 139.313 208.323 155.281 254.093 162.909 254.093 172.865 222.352 182.82 254.093 190.384 254.093 206.416 208.323 195.362 208.323 186.246 234.699"/><path fill="#194F82" d="M113.455,60.154c-4.202,0.259-8.727-2.133-13.576-6.465l-6.012,7.434 c5.818,5.301,12.283,8.275,19.459,8.016c14.675-0.517,16.679-9.632,16.679-13.77s-1.164-7.176-3.556-9.374 c-2.392-2.133-5.689-3.685-10.02-4.784c-4.331-1.099-7.111-2.004-8.275-2.78c-1.164-0.776-1.745-1.875-1.745-3.168 c0-1.293,0.711-4.331,5.495-4.396c4.267-0.065,8.275,1.487,12.283,4.461l5.172-7.434c-6.594-5.301-14.093-6.012-17.067-6.012 C107.636,21.883,96,23.758,96,35.394c0,4.331,1.228,7.499,3.685,9.503c2.457,2.004,6.335,3.62,11.636,4.978 c3.297,0.84,5.56,1.616,6.723,2.457c1.164,0.776,1.681,1.875,1.681,3.232C119.402,57.051,118.885,59.83,113.455,60.154z"/><polygon fill="#194F82" points="21.075 50.78 41.244 50.78 41.244 41.794 21.075 41.794 21.075 32.032 42.343 32.032 42.343 23.046 10.861 23.046 10.861 68.687 21.075 68.687"/><path fill="#194F82" d="M57.665,58.925H76.8l4.267,9.891h10.925l-19.846-45.77h-9.891l-19.782,45.64h10.925L57.665,58.925z M67.232,36.622l5.689,13.317H61.479L67.232,36.622z"/><polygon fill="#194F82" points="147.329 68.687 157.543 68.687 157.543 31.838 170.537 31.838 170.537 23.046 134.465 23.046 134.465 31.838 147.329 31.838"/><path fill="#194F82" d="M343.919,273.616H48.614C21.786,273.616,0,295.402,0,322.166c0,26.828,21.786,48.614,48.614,48.614 h295.434c26.828,0,48.614-21.786,48.614-48.614C392.533,295.402,370.747,273.616,343.919,273.616z M59.798,349.059H48.614v-0.065 c-14.739,0-26.764-11.96-26.764-26.764c0-14.739,11.96-26.764,26.764-26.764H79.58L59.798,349.059z M125.285,348.929H83.135 l19.782-53.527h22.238c14.739,0.065,26.828,12.024,26.828,26.828S140.024,348.929,125.285,348.929z M343.919,348.994h-178.23 c5.107-7.628,8.145-16.873,8.145-26.764c0-9.891-3.038-19.071-8.145-26.764h178.295c14.739,0,26.764,11.96,26.764,26.764 C370.747,336.905,358.723,348.994,343.919,348.994z"/><path fill="#194F82" d="M48.614,178.844h295.434c26.828,0,48.614-21.786,48.614-48.614 c-0.065-26.828-21.85-48.614-48.679-48.614H48.614C21.786,81.616,0,103.402,0,130.23C0,157.059,21.786,178.844,48.614,178.844z M281.083,103.467h62.836c14.739,0,26.764,11.96,26.764,26.764c0,14.739-11.96,26.764-26.764,26.764h-62.836 c5.107-7.628,8.145-16.873,8.145-26.764C289.228,120.339,286.19,111.16,281.083,103.467z M230.788,103.402h9.826 c14.739,0,26.828,12.024,26.828,26.828c0,14.739-11.96,26.764-26.764,26.764h-29.673L230.788,103.402z M166.853,103.402h40.727 l-19.782,53.527h-40.727L166.853,103.402z M102.853,103.402h40.727l-19.782,53.527H83.071L102.853,103.402z M48.614,103.467H79.58 l-19.782,53.463H48.614c-14.739,0-26.764-11.96-26.764-26.764C21.851,115.491,33.81,103.467,48.614,103.467z"/></g></svg>