<?xml version="1.0" encoding="iso-8859-1"?>
<!-- Generator: Adobe Illustrator 19.0.0, SVG Export Plug-In . SVG Version: 6.00 Build 0)  -->
<svg version="1.1" id="Capa_1" xmlns="http://www.w3.org/2000/svg" xmlns:xlink="http://www.w3.org/1999/xlink" x="0px" y="0px"
	 viewBox="0 0 58 58" style="enable-background:new 0 0 58 58;" xml:space="preserve">
<path style="fill:#E57E25;" d="M7.221,5C7.7,4.468,8,3.772,8,3c0-1.657-1.343-3-3-3S2,1.343,2,3c0,0.772,0.3,1.468,0.779,2H7.221z"
	/>
<rect x="2" y="9" style="fill:#F0C419;" width="6" height="40"/>
<rect y="5" style="fill:#F29C1F;" width="10" height="4"/>
<rect y="49" style="fill:#F29C1F;" width="10" height="4"/>
<rect x="47" y="9" style="fill:#F0C419;" width="9" height="40"/>
<rect x="45" y="5" style="fill:#F29C1F;" width="13" height="4"/>
<rect x="45" y="49" style="fill:#F29C1F;" width="13" height="4"/>
<path style="fill:#E57E25;" d="M2.779,53C2.3,53.532,2,54.228,2,55c0,1.657,1.343,3,3,3s3-1.343,3-3c0-0.772-0.3-1.468-0.779-2
	H2.779z"/>
<path style="fill:#E57E25;" d="M54.221,5C54.7,4.468,55,3.772,55,3c0-1.657-1.343-3-3-3s-3,1.343-3,3c0,0.772,0.3,1.468,0.779,2
	H54.221z"/>
<path style="fill:#E57E25;" d="M49.779,53C49.3,53.532,49,54.228,49,55c0,1.657,1.343,3,3,3s3-1.343,3-3c0-0.772-0.3-1.468-0.779-2
	H49.779z"/>
<rect x="8" y="12" style="fill:#F0EDE0;" width="39" height="34"/>
<g>
	<path style="fill:#D6D1BB;" d="M12,20h3c0.552,0,1-0.448,1-1s-0.448-1-1-1h-3c-0.552,0-1,0.448-1,1S11.448,20,12,20z"/>
	<path style="fill:#D6D1BB;" d="M24,18h-3c-0.552,0-1,0.448-1,1s0.448,1,1,1h3c0.552,0,1-0.448,1-1S24.552,18,24,18z"/>
	<path style="fill:#D6D1BB;" d="M18,20c0.26,0,0.52-0.11,0.71-0.29C18.89,19.52,19,19.27,19,19s-0.11-0.52-0.29-0.71
		c-0.38-0.37-1.05-0.37-1.42,0C17.11,18.48,17,18.74,17,19c0,0.26,0.11,0.52,0.29,0.71C17.48,19.89,17.74,20,18,20z"/>
	<path style="fill:#D6D1BB;" d="M12,30c0.26,0,0.52-0.11,0.71-0.29C12.89,29.52,13,29.27,13,29c0-0.26-0.11-0.52-0.29-0.71
		c-0.38-0.37-1.05-0.37-1.42,0C11.11,28.48,11,28.73,11,29s0.11,0.52,0.29,0.71C11.48,29.89,11.74,30,12,30z"/>
	<path style="fill:#D6D1BB;" d="M24,23h-9c-0.552,0-1,0.448-1,1s0.448,1,1,1h9c0.552,0,1-0.448,1-1S24.552,23,24,23z"/>
	<path style="fill:#D6D1BB;" d="M21,30c0.552,0,1-0.448,1-1s-0.448-1-1-1h-6c-0.552,0-1,0.448-1,1s0.448,1,1,1H21z"/>
	<path style="fill:#D6D1BB;" d="M12,25c0.26,0,0.52-0.11,0.71-0.29C12.89,24.52,13,24.26,13,24c0-0.26-0.11-0.52-0.29-0.71
		c-0.38-0.37-1.05-0.36-1.42,0C11.11,23.48,11,23.73,11,24c0,0.26,0.11,0.52,0.29,0.71C11.48,24.89,11.74,25,12,25z"/>
	<path style="fill:#D6D1BB;" d="M23.29,28.29C23.11,28.48,23,28.74,23,29c0,0.26,0.11,0.52,0.29,0.71C23.48,29.89,23.74,30,24,30
		c0.26,0,0.52-0.11,0.71-0.29C24.89,29.52,25,29.26,25,29c0-0.26-0.11-0.52-0.29-0.71C24.34,27.92,23.67,27.92,23.29,28.29z"/>
	<path style="fill:#D6D1BB;" d="M24,33H12c-0.552,0-1,0.448-1,1s0.448,1,1,1h12c0.552,0,1-0.448,1-1S24.552,33,24,33z"/>
	<path style="fill:#D6D1BB;" d="M15,38h-3c-0.552,0-1,0.448-1,1s0.448,1,1,1h3c0.552,0,1-0.448,1-1S15.552,38,15,38z"/>
	<path style="fill:#D6D1BB;" d="M24,38h-6c-0.552,0-1,0.448-1,1s0.448,1,1,1h6c0.552,0,1-0.448,1-1S24.552,38,24,38z"/>
	<path style="fill:#D6D1BB;" d="M31,20h3c0.552,0,1-0.448,1-1s-0.448-1-1-1h-3c-0.552,0-1,0.448-1,1S30.448,20,31,20z"/>
	<path style="fill:#D6D1BB;" d="M40,20h3c0.552,0,1-0.448,1-1s-0.448-1-1-1h-3c-0.552,0-1,0.448-1,1S39.448,20,40,20z"/>
	<path style="fill:#D6D1BB;" d="M37,20c0.26,0,0.52-0.11,0.71-0.29C37.89,19.52,38,19.26,38,19c0-0.26-0.11-0.52-0.29-0.71
		c-0.37-0.37-1.05-0.37-1.42,0C36.11,18.48,36,18.74,36,19c0,0.26,0.11,0.52,0.29,0.71C36.48,19.89,36.74,20,37,20z"/>
	<path style="fill:#D6D1BB;" d="M31,30c0.26,0,0.52-0.11,0.71-0.29C31.89,29.52,32,29.26,32,29c0-0.26-0.11-0.52-0.29-0.71
		c-0.38-0.37-1.05-0.37-1.42,0C30.11,28.48,30,28.74,30,29c0,0.26,0.11,0.52,0.29,0.71C30.48,29.89,30.74,30,31,30z"/>
	<path style="fill:#D6D1BB;" d="M43,23h-9c-0.552,0-1,0.448-1,1s0.448,1,1,1h9c0.552,0,1-0.448,1-1S43.552,23,43,23z"/>
	<path style="fill:#D6D1BB;" d="M40,30c0.552,0,1-0.448,1-1s-0.448-1-1-1h-6c-0.552,0-1,0.448-1,1s0.448,1,1,1H40z"/>
	<path style="fill:#D6D1BB;" d="M31,25c0.26,0,0.52-0.11,0.71-0.29C31.89,24.52,32,24.26,32,24c0-0.26-0.11-0.52-0.29-0.71
		c-0.37-0.37-1.05-0.37-1.42,0C30.11,23.48,30,23.74,30,24c0,0.26,0.11,0.52,0.29,0.71C30.48,24.89,30.74,25,31,25z"/>
	<path style="fill:#D6D1BB;" d="M42.29,28.29C42.11,28.48,42,28.74,42,29c0,0.26,0.11,0.52,0.29,0.71C42.48,29.89,42.74,30,43,30
		c0.26,0,0.52-0.11,0.71-0.29C43.89,29.52,44,29.26,44,29c0-0.26-0.11-0.52-0.29-0.71C43.34,27.92,42.66,27.92,42.29,28.29z"/>
	<path style="fill:#D6D1BB;" d="M43,33H31c-0.552,0-1,0.448-1,1s0.448,1,1,1h12c0.552,0,1-0.448,1-1S43.552,33,43,33z"/>
	<path style="fill:#D6D1BB;" d="M34,38h-3c-0.552,0-1,0.448-1,1s0.448,1,1,1h3c0.552,0,1-0.448,1-1S34.552,38,34,38z"/>
	<path style="fill:#D6D1BB;" d="M43,38h-6c-0.552,0-1,0.448-1,1s0.448,1,1,1h6c0.552,0,1-0.448,1-1S43.552,38,43,38z"/>
</g>
<g>
</g>
<g>
</g>
<g>
</g>
<g>
</g>
<g>
</g>
<g>
</g>
<g>
</g>
<g>
</g>
<g>
</g>
<g>
</g>
<g>
</g>
<g>
</g>
<g>
</g>
<g>
</g>
<g>
</g>
</svg>
